<svg xmlns="http://www.w3.org/2000/svg" xmlns:xlink="http://www.w3.org/1999/xlink" width="1369.33" height="900.404" viewBox="0 0 1369.33 900.404">
  <defs>
    <style>
      .cls-1 {
        fill: url(#linear-gradient);
      }
    </style>
    <linearGradient id="linear-gradient" x1="0.29" y1="0.094" x2="0.562" y2="1" gradientUnits="objectBoundingBox">
      <stop offset="0" stop-color="#4397eb"/>
      <stop offset="1" stop-color="#83a1e6"/>
    </linearGradient>
  </defs>
  <path id="Subtraction_1" data-name="Subtraction 1" class="cls-1" d="M1369.33,953.856H0V383.946a152.526,152.526,0,0,1,6.993-20.462A204.291,204.291,0,0,1,17.086,342.51a195.278,195.278,0,0,1,15.691-24.043A165.176,165.176,0,0,1,84.56,273.45a158.357,158.357,0,0,1,17.853-8.377,165.249,165.249,0,0,1,20.041-6.458,180.068,180.068,0,0,1,22.341-4.157,204.8,204.8,0,0,1,24.755-1.471c34.509,0,104.646.712,193.443,1.613h.082c146.449,1.486,347.018,3.522,510.058,3.522,69.774,0,127.876-.378,172.692-1.123,50.912-.847,86.547-2.2,105.916-4.012a134.268,134.268,0,0,0,20.942-3.693,154.968,154.968,0,0,0,20.309-6.819,204.118,204.118,0,0,0,38.425-21.341c21.987-15.312,44.191-36.09,65.994-61.755a599.806,599.806,0,0,0,47.556-64.834c12.345-19.293,20.766-34.569,24.362-41.092v900.4Z" transform="translate(0 -53.453)"/>
</svg>
