<svg xmlns="http://www.w3.org/2000/svg" xmlns:xlink="http://www.w3.org/1999/xlink" width="1374.5" height="688.5" viewBox="0 0 1374.5 688.5"><defs><style>.a,.c,.d{fill:none;}.b{stroke:#707070;fill:url(#a);}.c{stroke:#e3fafb;}.d{stroke:#fff;opacity:0.25;}.e{clip-path:url(#b);}.f{stroke:none;}</style><radialGradient id="a" cx="0.5" cy="0.5" r="0.5" gradientUnits="objectBoundingBox"><stop offset="0" stop-color="#43bcf2"/><stop offset="1" stop-color="#2ba7ee"/></radialGradient><clipPath id="b"><rect class="a" width="1370" height="646"/></clipPath></defs><g transform="translate(3.5 -118)"><g class="b" transform="translate(-2 118)"><rect class="f" width="1370" height="688"/><rect class="a" x="0.5" y="0.5" width="1369" height="687"/></g><g transform="translate(-3.5 118)"><line class="c" y2="688" transform="translate(4 0.5)"/><line class="d" y2="688" transform="translate(141 0.5)"/><g class="e"><g transform="translate(3.5 -118)"><line class="d" x2="1370" transform="translate(-45.5 134.5)"/></g><g transform="translate(3.5 3)"><line class="d" x2="1370" transform="translate(-45.5 134.5)"/></g><g transform="translate(3.5 124)"><line class="d" x2="1370" transform="translate(-45.5 134.5)"/></g><g transform="translate(3.5 245)"><line class="d" x2="1370" transform="translate(-45.5 134.5)"/></g><g transform="translate(3.5 366)"><line class="d" x2="1370" transform="translate(-45.5 134.5)"/></g><g transform="translate(3.5 487)"><line class="d" x2="1370" transform="translate(-45.5 134.5)"/></g></g><line class="d" y2="688" transform="translate(278 0.5)"/><line class="d" y2="688" transform="translate(415 0.5)"/><line class="d" y2="688" transform="translate(552 0.5)"/><line class="d" y2="688" transform="translate(689 0.5)"/><line class="d" y2="688" transform="translate(826 0.5)"/><line class="d" y2="688" transform="translate(963 0.5)"/><line class="d" y2="688" transform="translate(1100 0.5)"/><line class="d" y2="688" transform="translate(1237 0.5)"/><line class="c" y2="688" transform="translate(1374 0.5)"/></g></g></svg>