<svg xmlns="http://www.w3.org/2000/svg" width="390.634" height="285.029" viewBox="0 0 390.634 285.029"><defs><style>.a{fill:#ffb8b8;}.b{fill:#fff1f1;}.c{fill:#2f2e41;}.d{fill:#536dfe;}.e{fill:#3f3d56;}.f{fill:none;stroke:#d0cde1;stroke-miterlimit:10;stroke-width:2px;}.g{fill:#d0cde1;}</style></defs><g transform="translate(-646.845 -223)"><g transform="translate(782.974 223)"><ellipse class="a" cx="30.758" cy="35.316" rx="30.758" ry="35.316" transform="translate(76.074 18.767)"/><path class="a" d="M845.777,301.692s5.795,43.686-3.12,48.589S895.7,355.63,895.7,355.63s-13.819-37.891-7.578-49.481Z" transform="translate(-761.902 -236.787)"/><path class="b" d="M918.841,372.548l-5.153,23.465-10.9,49.645-.326,2.719-3.76,31.475-2.5,20.909-1.677,14.046c-10.2,5.241-17.588,8.859-17.588,8.859s-.636-3.187-1.661-7.265c-7.157,2.146-20.4,5.705-31.621,6.416,4.087,4.555,5.965,8.834,3.417,11.992-7.688,9.52-39.426-10.423-50.527-17.86a30.05,30.05,0,0,0-.293,5.379l-8.5-6.533.841-15.033,1.418-25.435,1.782-31.9a33.5,33.5,0,0,1-1.41-4.2c-2.6-9.252-5.76-27.727-8.181-43.22-1.949-12.469-3.413-23.005-3.723-25.247-.042-.293-.063-.443-.063-.443l47.026-20.78c3.342,7.751,18.948,10.08,18.948,10.08a52.34,52.34,0,0,0,23.064-7.709Z" transform="translate(-739.794 -253.484)"/><path class="a" d="M905.006,595.625s-1.991.682-5.228,1.648c-7.157,2.146-20.4,5.705-31.621,6.416-9.662.619-17.827-.87-19.32-7.173a6.662,6.662,0,0,1,2.246-6.772c5.906-5.475,21.332-7.437,33.566-8.11,3.455-.188,6.651-.276,9.311-.31,4.517-.059,7.479.034,7.479.034l.071.276Z" transform="translate(-764.294 -334.356)"/><path class="c" d="M839.516,222.432l-5.751-2.3s12.025-13.239,28.755-12.087l-4.706-5.18s11.5-4.6,21.958,7.483c5.5,6.354,11.856,13.823,15.821,22.237h6.159l-2.57,5.66,9,5.66-9.234-1.017a31.627,31.627,0,0,1,.251,9.388,12.147,12.147,0,0,1-4.448,7.946h0s-7.132-14.763-7.132-17.066v5.756s-5.751-5.18-5.751-8.634l-3.137,4.029-1.568-6.332L857.814,244.3l3.137-5.18-12.025,1.727,4.706-6.332S840.039,242,839.516,248.333s-4.5,12.331-4.5,12.331S824.354,231.065,839.516,222.432Z" transform="translate(-758.271 -202)"/><path class="b" d="M1000.056,492.755c-3.133,3.4-10.9,8.512-20.307,14.05-3.5,2.058-7.228,4.179-11.03,6.287-9.072,5.032-18.571,10.018-26.41,14.046C932.111,532.378,924.72,536,924.72,536s-.636-3.187-1.661-7.265c-1.372-5.458-3.438-12.515-5.592-15.639-.075-.109-.151-.209-.226-.31-.627-.824-1.259-1.305-1.882-1.305l31.129-19.295,13.452-8.34-9.691-23.135-12.155-29.02,7.336-23.344,7.374-23.465h13.82s4.576,9.988,10.428,23.917c.874,2.083,1.778,4.254,2.7,6.5C991.787,444.57,1006.794,485.456,1000.056,492.755Z" transform="translate(-787.577 -265.814)"/><path class="a" d="M854.721,613.559c-7.688,9.52-39.426-10.423-50.527-17.86-2.418-1.619-3.857-2.643-3.857-2.643l10.156-13.544,3.217-4.287s2.878,1.527,7.132,4.011c.155.092.309.184.469.276,3.668,2.154,8.273,4.969,12.92,8.11,6.412,4.337,12.9,9.286,17.074,13.945C855.39,606.122,857.268,610.4,854.721,613.559Z" transform="translate(-747.441 -332.234)"/><path class="b" d="M792.49,511.861a19.985,19.985,0,0,0-3.388.276c-9.616,1.652-12.452,10.356-13.259,16.187a30.054,30.054,0,0,0-.293,5.379l-8.495-6.533-3.1-2.38a56.409,56.409,0,0,1-19.843-12.653,99.74,99.74,0,0,1-13.364-15.849,139.781,139.781,0,0,1-10.34-17.735,13.043,13.043,0,0,1-.18-11.063l10.52-23.444,15.376-34.265q.169-1.224.372-2.393c3.049-17.484,11.218-25.247,11.218-25.247h6.241l4.174,25.247,5.187,31.366-3.635,11.854-8.4,27.376,8.027,8.717Z" transform="translate(-719.091 -264.859)"/><path class="d" d="M835.124,460.985l5.335,6.224c1.982-.378,4.052-.822,6.184-1.321l-1.532-4.9,3.747,4.371C871.443,459.8,899.437,449,899.437,449s-30.223,2.216-52.789-2.714a21.473,21.473,0,0,0-24.354,12.131c-2.382,5.442-2.007,10.157,6.439,10.157a55.787,55.787,0,0,0,8.513-.8Z" transform="translate(-754.661 -287.064)"/><path class="e" d="M923.36,622.5v2.539a5.581,5.581,0,0,1-.381,2.037,5.733,5.733,0,0,1-.406.836,5.62,5.62,0,0,1-4.831,2.744H730.96a5.62,5.62,0,0,1-4.831-2.744,5.706,5.706,0,0,1-.406-.837,5.577,5.577,0,0,1-.381-2.037V622.5a5.616,5.616,0,0,1,5.617-5.617h10.766V615.7a.234.234,0,0,1,.234-.234h5.618a.234.234,0,0,1,.234.234v1.184h3.509V615.7a.234.234,0,0,1,.234-.234h5.617a.234.234,0,0,1,.234.234v1.184h3.513V615.7a.234.234,0,0,1,.234-.234h5.617a.234.234,0,0,1,.234.234v1.184h3.509V615.7a.234.234,0,0,1,.234-.234h5.617a.234.234,0,0,1,.234.234v1.184h3.509V615.7a.234.234,0,0,1,.234-.234h5.618a.234.234,0,0,1,.234.234v1.184h3.513V615.7a.234.234,0,0,1,.234-.234h5.617a.234.234,0,0,1,.234.234v1.184h3.509V615.7a.234.234,0,0,1,.234-.234h44a.234.234,0,0,1,.234.234v1.184h3.513V615.7a.234.234,0,0,1,.234-.234h5.617a.237.237,0,0,1,.234.234v1.184h3.509V615.7a.234.234,0,0,1,.234-.234h5.617a.234.234,0,0,1,.234.234v1.184h3.509V615.7a.234.234,0,0,1,.234-.234h5.617a.234.234,0,0,1,.234.234v1.184h3.513V615.7a.234.234,0,0,1,.234-.234h5.617a.233.233,0,0,1,.23.234v1.184h3.513V615.7a.234.234,0,0,1,.234-.234h5.617a.234.234,0,0,1,.234.234v1.184h3.509V615.7a.234.234,0,0,1,.234-.234h5.617a.234.234,0,0,1,.234.234v1.184H917.74A5.616,5.616,0,0,1,923.36,622.5Z" transform="translate(-721.272 -346.275)"/><path class="e" d="M912.166,461.268H842.545v-1.435H810.977v1.435H741.072a4.709,4.709,0,0,0-4.709,4.709v95.329a4.709,4.709,0,0,0,4.709,4.709H912.164a4.709,4.709,0,0,0,4.709-4.709v-95.33A4.709,4.709,0,0,0,912.166,461.268Z" transform="translate(-725.118 -291.969)"/><circle class="f" cx="10.457" cy="10.457" r="10.457" transform="translate(91.18 192.124)"/><circle class="g" cx="10.457" cy="10.457" r="10.457" transform="translate(87.834 195.888)"/></g><g transform="translate(678.75 450.461)"><path class="d" d="M574.057,558.937c9.36,10.043,9.843,24.805,9.843,24.805s-14.691-1.522-24.051-11.565-9.843-24.805-9.843-24.805S564.7,548.894,574.057,558.937Z" transform="translate(-550.006 -547.372)"/><g transform="translate(2.257 3.192)"><path class="d" d="M618.909,576.325c-10.043,9.36-24.805,9.843-24.805,9.843s1.522-14.691,11.565-24.051,24.805-9.843,24.805-9.843S628.952,566.965,618.909,576.325Z" transform="translate(-567.651 -552.274)"/><path class="e" d="M602.235,622.089H565.294a3.778,3.778,0,0,1-3.4-2.125l-8.043-16.532a3.778,3.778,0,0,1,3.4-5.431h53.026a3.778,3.778,0,0,1,3.4,5.431l-8.043,16.532a3.778,3.778,0,0,1-3.4,2.125Z" transform="translate(-553.473 -568.23)"/></g></g><rect class="e" width="390.634" height="0.651" transform="translate(646.845 507.378)"/></g></svg>