<svg xmlns="http://www.w3.org/2000/svg" width="51.165" height="51.23" viewBox="0 0 51.165 51.23"><defs><style>.a{fill:#fff;}</style></defs><path class="a" d="M3.375,13a3.769,3.769,0,0,1,.959-2.047L12.01,3.276q.9-.768,1.343.256l6.2,11.642a1.675,1.675,0,0,1-.32,1.983l-2.814,2.814a3.183,3.183,0,0,0-.9,1.983,9.764,9.764,0,0,0,1.983,4.925A42.062,42.062,0,0,0,21.413,32L23.4,34.043c.6.6,1.363,1.333,2.3,2.207A38.617,38.617,0,0,0,30.336,39.7q3.229,2.144,5.085,2.143a2.784,2.784,0,0,0,2.047-.832L40.8,37.689a1.406,1.406,0,0,1,1.917-.256l11.2,6.588a.935.935,0,0,1,.512.672.817.817,0,0,1-.256.736L46.49,53.1a3.759,3.759,0,0,1-2.045.957,15.475,15.475,0,0,1-7.07-.864,31.988,31.988,0,0,1-7.29-3.486q-3.358-2.174-6.237-4.412t-4.606-3.838l-1.663-1.6q-.639-.639-1.7-1.759T12.2,33.691a64.243,64.243,0,0,1-4.542-6.429,37.5,37.5,0,0,1-3.326-7.132A15.173,15.173,0,0,1,3.375,13Z" transform="translate(-3.267 -2.947)"/></svg>