<svg xmlns="http://www.w3.org/2000/svg" width="41.201" height="36.051" viewBox="0 0 41.201 36.051"><defs><style>.a{fill:#fff;}</style></defs><path class="a" d="M25.751,26.713A1.287,1.287,0,0,1,24.463,28H16.738a1.287,1.287,0,0,1-1.288-1.288V22.85H0V34.438A3.96,3.96,0,0,0,3.863,38.3H37.338A3.96,3.96,0,0,0,41.2,34.438V22.85H25.751ZM37.338,9.975H30.9V6.113A3.96,3.96,0,0,0,27.038,2.25H14.163A3.96,3.96,0,0,0,10.3,6.113V9.975H3.863A3.96,3.96,0,0,0,0,13.838v6.438H41.2V13.838A3.96,3.96,0,0,0,37.338,9.975Zm-11.588,0H15.45V7.4h10.3Z" transform="translate(0 -2.25)"/></svg>