<svg xmlns="http://www.w3.org/2000/svg" width="19.767" height="19.767" viewBox="0 0 19.767 19.767">
  <defs>
    <style>
      .cls-1 {
        fill: #eee;
      }
    </style>
  </defs>
  <path id="Icon_awesome-whatsapp" data-name="Icon awesome-whatsapp" class="cls-1" d="M16.806,5.122A9.8,9.8,0,0,0,1.39,16.943L0,22.017l5.193-1.363a9.766,9.766,0,0,0,4.681,1.191h0a9.89,9.89,0,0,0,9.888-9.8A9.834,9.834,0,0,0,16.806,5.122ZM9.879,20.195a8.127,8.127,0,0,1-4.148-1.134l-.3-.176-3.08.807.821-3-.194-.309a8.157,8.157,0,1,1,15.13-4.328,8.232,8.232,0,0,1-8.233,8.145Zm4.465-6.1c-.243-.124-1.447-.715-1.672-.794s-.388-.124-.552.124-.631.794-.777.962-.287.185-.529.062a6.662,6.662,0,0,1-3.331-2.912c-.252-.432.252-.4.719-1.337a.454.454,0,0,0-.022-.428c-.062-.124-.552-1.328-.755-1.818s-.4-.41-.552-.419-.3-.009-.468-.009a.907.907,0,0,0-.653.3A2.75,2.75,0,0,0,4.9,9.874a4.8,4.8,0,0,0,1,2.533,10.937,10.937,0,0,0,4.183,3.7,4.789,4.789,0,0,0,2.939.613,2.507,2.507,0,0,0,1.65-1.165,2.047,2.047,0,0,0,.141-1.165C14.75,14.278,14.587,14.216,14.344,14.1Z" transform="translate(0 -2.25)"/>
</svg>
